<svg xmlns="http://www.w3.org/2000/svg" width="1480" height="300" style="background:white">
<style>text{font-family:monospace; font-size:13px}</style>
<text x="160" y="20" font-weight="bold">example3</text>
<rect x="0" y="50" width="150" height="220" fill="white" stroke="#ddd"/>
<line x1="150" y1="50" x2="150" y2="280" stroke="#aaa" stroke-width="1"/>
<line x1="200.0" y1="40" x2="200.0" y2="290" stroke="#f0f0f0" stroke-width="1"/>
<text x="194.0" y="32" font-size="11">0</text>
<line x1="280.0" y1="40" x2="280.0" y2="290" stroke="#f0f0f0" stroke-width="1"/>
<text x="274.0" y="32" font-size="11">1</text>
<line x1="360.0" y1="40" x2="360.0" y2="290" stroke="#f0f0f0" stroke-width="1"/>
<text x="354.0" y="32" font-size="11">2</text>
<line x1="440.0" y1="40" x2="440.0" y2="290" stroke="#f0f0f0" stroke-width="1"/>
<text x="434.0" y="32" font-size="11">3</text>
<line x1="520.0" y1="40" x2="520.0" y2="290" stroke="#f0f0f0" stroke-width="1"/>
<text x="514.0" y="32" font-size="11">4</text>
<line x1="600.0" y1="40" x2="600.0" y2="290" stroke="#f0f0f0" stroke-width="1"/>
<text x="594.0" y="32" font-size="11">5</text>
<line x1="680.0" y1="40" x2="680.0" y2="290" stroke="#f0f0f0" stroke-width="1"/>
<text x="674.0" y="32" font-size="11">6</text>
<line x1="760.0" y1="40" x2="760.0" y2="290" stroke="#f0f0f0" stroke-width="1"/>
<text x="754.0" y="32" font-size="11">7</text>
<line x1="840.0" y1="40" x2="840.0" y2="290" stroke="#f0f0f0" stroke-width="1"/>
<text x="834.0" y="32" font-size="11">8</text>
<line x1="920.0" y1="40" x2="920.0" y2="290" stroke="#f0f0f0" stroke-width="1"/>
<text x="914.0" y="32" font-size="11">9</text>
<line x1="1000.0" y1="40" x2="1000.0" y2="290" stroke="#f0f0f0" stroke-width="1"/>
<text x="994.0" y="32" font-size="11">10</text>
<line x1="1080.0" y1="40" x2="1080.0" y2="290" stroke="#f0f0f0" stroke-width="1"/>
<text x="1074.0" y="32" font-size="11">11</text>
<line x1="1160.0" y1="40" x2="1160.0" y2="290" stroke="#f0f0f0" stroke-width="1"/>
<text x="1154.0" y="32" font-size="11">12</text>
<line x1="1240.0" y1="40" x2="1240.0" y2="290" stroke="#f0f0f0" stroke-width="1"/>
<text x="1234.0" y="32" font-size="11">13</text>
<line x1="1320.0" y1="40" x2="1320.0" y2="290" stroke="#f0f0f0" stroke-width="1"/>
<text x="1314.0" y="32" font-size="11">14</text>
<line x1="1400.0" y1="40" x2="1400.0" y2="290" stroke="#f0f0f0" stroke-width="1"/>
<text x="1394.0" y="32" font-size="11">15</text>
<text x="146" y="85.0" text-anchor="end">A</text>
<line x1="156" y1="80.0" x2="1470" y2="80.0" stroke="#eee" stroke-width="1"/>
<line x1="160" y1="92.0" x2="240" y2="92.0" stroke="#e63946" stroke-width="4"/>
<line x1="240" y1="92.0" x2="320" y2="92.0" stroke="#e63946" stroke-width="4"/>
<line x1="320" y1="92.0" x2="400" y2="92.0" stroke="#e63946" stroke-width="4"/>
<line x1="400" y1="92.0" x2="480" y2="92.0" stroke="#e63946" stroke-width="4"/>
<line x1="480" y1="92.0" x2="560" y2="92.0" stroke="#e63946" stroke-width="4"/>
<line x1="560" y1="92.0" x2="640" y2="92.0" stroke="#e63946" stroke-width="4"/>
<line x1="640" y1="92.0" x2="720" y2="92.0" stroke="#e63946" stroke-width="4"/>
<line x1="720" y1="92.0" x2="800" y2="92.0" stroke="#e63946" stroke-width="4"/>
<line x1="800" y1="92.0" x2="800" y2="68.0" stroke="#000" stroke-width="2"/>
<line x1="800" y1="68.0" x2="880" y2="68.0" stroke="#2a9d8f" stroke-width="4"/>
<line x1="880" y1="68.0" x2="960" y2="68.0" stroke="#2a9d8f" stroke-width="4"/>
<line x1="960" y1="68.0" x2="1040" y2="68.0" stroke="#2a9d8f" stroke-width="4"/>
<line x1="1040" y1="68.0" x2="1120" y2="68.0" stroke="#2a9d8f" stroke-width="4"/>
<line x1="1120" y1="68.0" x2="1200" y2="68.0" stroke="#2a9d8f" stroke-width="4"/>
<line x1="1200" y1="68.0" x2="1280" y2="68.0" stroke="#2a9d8f" stroke-width="4"/>
<line x1="1280" y1="68.0" x2="1360" y2="68.0" stroke="#2a9d8f" stroke-width="4"/>
<line x1="1360" y1="68.0" x2="1440" y2="68.0" stroke="#2a9d8f" stroke-width="4"/>
<text x="146" y="125.0" text-anchor="end">B</text>
<line x1="156" y1="120.0" x2="1470" y2="120.0" stroke="#eee" stroke-width="1"/>
<line x1="160" y1="132.0" x2="240" y2="132.0" stroke="#e63946" stroke-width="4"/>
<line x1="240" y1="132.0" x2="320" y2="132.0" stroke="#e63946" stroke-width="4"/>
<line x1="320" y1="132.0" x2="400" y2="132.0" stroke="#e63946" stroke-width="4"/>
<line x1="400" y1="132.0" x2="480" y2="132.0" stroke="#e63946" stroke-width="4"/>
<line x1="480" y1="132.0" x2="480" y2="108.0" stroke="#000" stroke-width="2"/>
<line x1="480" y1="108.0" x2="560" y2="108.0" stroke="#2a9d8f" stroke-width="4"/>
<line x1="560" y1="108.0" x2="640" y2="108.0" stroke="#2a9d8f" stroke-width="4"/>
<line x1="640" y1="108.0" x2="720" y2="108.0" stroke="#2a9d8f" stroke-width="4"/>
<line x1="720" y1="108.0" x2="800" y2="108.0" stroke="#2a9d8f" stroke-width="4"/>
<line x1="800" y1="108.0" x2="800" y2="132.0" stroke="#000" stroke-width="2"/>
<line x1="800" y1="132.0" x2="880" y2="132.0" stroke="#e63946" stroke-width="4"/>
<line x1="880" y1="132.0" x2="960" y2="132.0" stroke="#e63946" stroke-width="4"/>
<line x1="960" y1="132.0" x2="1040" y2="132.0" stroke="#e63946" stroke-width="4"/>
<line x1="1040" y1="132.0" x2="1120" y2="132.0" stroke="#e63946" stroke-width="4"/>
<line x1="1120" y1="132.0" x2="1120" y2="108.0" stroke="#000" stroke-width="2"/>
<line x1="1120" y1="108.0" x2="1200" y2="108.0" stroke="#2a9d8f" stroke-width="4"/>
<line x1="1200" y1="108.0" x2="1280" y2="108.0" stroke="#2a9d8f" stroke-width="4"/>
<line x1="1280" y1="108.0" x2="1360" y2="108.0" stroke="#2a9d8f" stroke-width="4"/>
<line x1="1360" y1="108.0" x2="1440" y2="108.0" stroke="#2a9d8f" stroke-width="4"/>
<text x="146" y="165.0" text-anchor="end">C</text>
<line x1="156" y1="160.0" x2="1470" y2="160.0" stroke="#eee" stroke-width="1"/>
<line x1="160" y1="172.0" x2="240" y2="172.0" stroke="#e63946" stroke-width="4"/>
<line x1="240" y1="172.0" x2="320" y2="172.0" stroke="#e63946" stroke-width="4"/>
<line x1="320" y1="172.0" x2="320" y2="148.0" stroke="#000" stroke-width="2"/>
<line x1="320" y1="148.0" x2="400" y2="148.0" stroke="#2a9d8f" stroke-width="4"/>
<line x1="400" y1="148.0" x2="480" y2="148.0" stroke="#2a9d8f" stroke-width="4"/>
<line x1="480" y1="148.0" x2="480" y2="172.0" stroke="#000" stroke-width="2"/>
<line x1="480" y1="172.0" x2="560" y2="172.0" stroke="#e63946" stroke-width="4"/>
<line x1="560" y1="172.0" x2="640" y2="172.0" stroke="#e63946" stroke-width="4"/>
<line x1="640" y1="172.0" x2="640" y2="148.0" stroke="#000" stroke-width="2"/>
<line x1="640" y1="148.0" x2="720" y2="148.0" stroke="#2a9d8f" stroke-width="4"/>
<line x1="720" y1="148.0" x2="800" y2="148.0" stroke="#2a9d8f" stroke-width="4"/>
<line x1="800" y1="148.0" x2="800" y2="172.0" stroke="#000" stroke-width="2"/>
<line x1="800" y1="172.0" x2="880" y2="172.0" stroke="#e63946" stroke-width="4"/>
<line x1="880" y1="172.0" x2="960" y2="172.0" stroke="#e63946" stroke-width="4"/>
<line x1="960" y1="172.0" x2="960" y2="148.0" stroke="#000" stroke-width="2"/>
<line x1="960" y1="148.0" x2="1040" y2="148.0" stroke="#2a9d8f" stroke-width="4"/>
<line x1="1040" y1="148.0" x2="1120" y2="148.0" stroke="#2a9d8f" stroke-width="4"/>
<line x1="1120" y1="148.0" x2="1120" y2="172.0" stroke="#000" stroke-width="2"/>
<line x1="1120" y1="172.0" x2="1200" y2="172.0" stroke="#e63946" stroke-width="4"/>
<line x1="1200" y1="172.0" x2="1280" y2="172.0" stroke="#e63946" stroke-width="4"/>
<line x1="1280" y1="172.0" x2="1280" y2="148.0" stroke="#000" stroke-width="2"/>
<line x1="1280" y1="148.0" x2="1360" y2="148.0" stroke="#2a9d8f" stroke-width="4"/>
<line x1="1360" y1="148.0" x2="1440" y2="148.0" stroke="#2a9d8f" stroke-width="4"/>
<text x="146" y="205.0" text-anchor="end">D</text>
<line x1="156" y1="200.0" x2="1470" y2="200.0" stroke="#eee" stroke-width="1"/>
<line x1="160" y1="212.0" x2="240" y2="212.0" stroke="#e63946" stroke-width="4"/>
<line x1="240" y1="212.0" x2="240" y2="188.0" stroke="#000" stroke-width="2"/>
<line x1="240" y1="188.0" x2="320" y2="188.0" stroke="#2a9d8f" stroke-width="4"/>
<line x1="320" y1="188.0" x2="320" y2="212.0" stroke="#000" stroke-width="2"/>
<line x1="320" y1="212.0" x2="400" y2="212.0" stroke="#e63946" stroke-width="4"/>
<line x1="400" y1="212.0" x2="400" y2="188.0" stroke="#000" stroke-width="2"/>
<line x1="400" y1="188.0" x2="480" y2="188.0" stroke="#2a9d8f" stroke-width="4"/>
<line x1="480" y1="188.0" x2="480" y2="212.0" stroke="#000" stroke-width="2"/>
<line x1="480" y1="212.0" x2="560" y2="212.0" stroke="#e63946" stroke-width="4"/>
<line x1="560" y1="212.0" x2="560" y2="188.0" stroke="#000" stroke-width="2"/>
<line x1="560" y1="188.0" x2="640" y2="188.0" stroke="#2a9d8f" stroke-width="4"/>
<line x1="640" y1="188.0" x2="640" y2="212.0" stroke="#000" stroke-width="2"/>
<line x1="640" y1="212.0" x2="720" y2="212.0" stroke="#e63946" stroke-width="4"/>
<line x1="720" y1="212.0" x2="720" y2="188.0" stroke="#000" stroke-width="2"/>
<line x1="720" y1="188.0" x2="800" y2="188.0" stroke="#2a9d8f" stroke-width="4"/>
<line x1="800" y1="188.0" x2="800" y2="212.0" stroke="#000" stroke-width="2"/>
<line x1="800" y1="212.0" x2="880" y2="212.0" stroke="#e63946" stroke-width="4"/>
<line x1="880" y1="212.0" x2="880" y2="188.0" stroke="#000" stroke-width="2"/>
<line x1="880" y1="188.0" x2="960" y2="188.0" stroke="#2a9d8f" stroke-width="4"/>
<line x1="960" y1="188.0" x2="960" y2="212.0" stroke="#000" stroke-width="2"/>
<line x1="960" y1="212.0" x2="1040" y2="212.0" stroke="#e63946" stroke-width="4"/>
<line x1="1040" y1="212.0" x2="1040" y2="188.0" stroke="#000" stroke-width="2"/>
<line x1="1040" y1="188.0" x2="1120" y2="188.0" stroke="#2a9d8f" stroke-width="4"/>
<line x1="1120" y1="188.0" x2="1120" y2="212.0" stroke="#000" stroke-width="2"/>
<line x1="1120" y1="212.0" x2="1200" y2="212.0" stroke="#e63946" stroke-width="4"/>
<line x1="1200" y1="212.0" x2="1200" y2="188.0" stroke="#000" stroke-width="2"/>
<line x1="1200" y1="188.0" x2="1280" y2="188.0" stroke="#2a9d8f" stroke-width="4"/>
<line x1="1280" y1="188.0" x2="1280" y2="212.0" stroke="#000" stroke-width="2"/>
<line x1="1280" y1="212.0" x2="1360" y2="212.0" stroke="#e63946" stroke-width="4"/>
<line x1="1360" y1="212.0" x2="1360" y2="188.0" stroke="#000" stroke-width="2"/>
<line x1="1360" y1="188.0" x2="1440" y2="188.0" stroke="#2a9d8f" stroke-width="4"/>
<text x="146" y="245.0" text-anchor="end">Y</text>
<line x1="156" y1="240.0" x2="1470" y2="240.0" stroke="#eee" stroke-width="1"/>
<line x1="160" y1="252.0" x2="240" y2="252.0" stroke="#e63946" stroke-width="4"/>
<line x1="240" y1="252.0" x2="320" y2="252.0" stroke="#e63946" stroke-width="4"/>
<line x1="320" y1="252.0" x2="400" y2="252.0" stroke="#e63946" stroke-width="4"/>
<line x1="400" y1="252.0" x2="480" y2="252.0" stroke="#e63946" stroke-width="4"/>
<line x1="480" y1="252.0" x2="560" y2="252.0" stroke="#e63946" stroke-width="4"/>
<line x1="560" y1="252.0" x2="640" y2="252.0" stroke="#e63946" stroke-width="4"/>
<line x1="640" y1="252.0" x2="720" y2="252.0" stroke="#e63946" stroke-width="4"/>
<line x1="720" y1="252.0" x2="720" y2="228.0" stroke="#000" stroke-width="2"/>
<line x1="720" y1="228.0" x2="800" y2="228.0" stroke="#2a9d8f" stroke-width="4"/>
<line x1="800" y1="228.0" x2="800" y2="252.0" stroke="#000" stroke-width="2"/>
<line x1="800" y1="252.0" x2="880" y2="252.0" stroke="#e63946" stroke-width="4"/>
<line x1="880" y1="252.0" x2="960" y2="252.0" stroke="#e63946" stroke-width="4"/>
<line x1="960" y1="252.0" x2="1040" y2="252.0" stroke="#e63946" stroke-width="4"/>
<line x1="1040" y1="252.0" x2="1040" y2="228.0" stroke="#000" stroke-width="2"/>
<line x1="1040" y1="228.0" x2="1120" y2="228.0" stroke="#2a9d8f" stroke-width="4"/>
<line x1="1120" y1="228.0" x2="1200" y2="228.0" stroke="#2a9d8f" stroke-width="4"/>
<line x1="1200" y1="228.0" x2="1280" y2="228.0" stroke="#2a9d8f" stroke-width="4"/>
<line x1="1280" y1="228.0" x2="1360" y2="228.0" stroke="#2a9d8f" stroke-width="4"/>
<line x1="1360" y1="228.0" x2="1440" y2="228.0" stroke="#2a9d8f" stroke-width="4"/>
</svg>